<svg width="259" height="64" viewBox="0 0 259 64" fill="none" xmlns="http://www.w3.org/2000/svg">
<path d="M42.1556 28.1143L30 29.5714L33.4036 40.7429L42.1556 28.1143Z" fill="url(#paint0_linear_120_74)"/>
<path d="M38.752 16.9429L30.9724 27.1429L42.6418 25.6857L38.752 16.9429Z" fill="url(#paint1_linear_120_74)"/>
<path d="M51.3938 15L40.6969 16.4571L45.0729 24.7143L51.3938 15Z" fill="url(#paint2_linear_120_74)"/>
<path d="M54.3112 15.4857L46.5316 26.1714L59.6596 28.1143L54.3112 15.4857Z" fill="url(#paint3_linear_120_74)"/>
<path d="M65.9805 17.9143L56.7423 15.4857L62.0908 27.1429L65.9805 17.9143Z" fill="url(#paint4_linear_120_74)"/>
<path d="M63.5494 28.6L67.9254 19.3714L74.2463 28.6H63.5494Z" fill="url(#paint5_linear_120_74)"/>
<path d="M74.2463 31.0286H63.5494L67.9254 41.2286L74.2463 31.0286Z" fill="url(#paint6_linear_120_74)"/>
<path d="M59.1734 30.5429L46.5316 28.6L49.9352 40.2571L59.1734 30.5429Z" fill="url(#paint7_linear_120_74)"/>
<path d="M62.0908 32.4857L52.3663 42.2H66.4668L62.0908 32.4857Z" fill="url(#paint8_linear_120_74)"/>
<path d="M39.2382 41.7143L41.1831 33.4571L35.3485 41.7143H39.2382Z" fill="url(#paint9_linear_120_74)"/>
<path d="M48.4765 42.6857L44.5867 30.5429L41.1831 42.6857L48.4765 49V42.6857Z" fill="url(#paint10_linear_120_74)"/>
<path d="M96.7192 38.7772C94.3777 38.7772 92.4238 37.9861 90.8577 36.404C89.3068 34.8067 88.5314 32.8443 88.5314 30.5168C88.5314 28.2045 89.3144 26.2497 90.8805 24.6523C92.4466 23.055 94.4385 22.2564 96.8561 22.2564C98.2397 22.2564 99.4029 22.4846 100.346 22.9409C101.288 23.3821 102.185 24.021 103.037 24.8577L100.939 27.2765C100.254 26.6528 99.6082 26.204 99 25.9302C98.407 25.6412 97.6848 25.4966 96.8333 25.4966C95.4952 25.4966 94.3853 25.9834 93.5034 26.957C92.6367 27.9154 92.2034 29.102 92.2034 30.5168C92.2034 31.9163 92.6367 33.1029 93.5034 34.0765C94.3853 35.0501 95.4952 35.5369 96.8333 35.5369C97.6848 35.5369 98.4222 35.3848 99.0456 35.0805C99.669 34.7763 100.33 34.3047 101.03 33.6658L103.265 36.0617C102.398 36.9897 101.456 37.6743 100.437 38.1154C99.4333 38.5566 98.1941 38.7772 96.7192 38.7772Z" fill="#3CA1FF"/>
<path d="M119.567 36.3812C117.955 37.9785 115.933 38.7772 113.5 38.7772C111.067 38.7772 109.045 37.9785 107.433 36.3812C105.836 34.7839 105.038 32.8291 105.038 30.5168C105.038 28.2197 105.844 26.2725 107.456 24.6752C109.083 23.0626 111.113 22.2564 113.545 22.2564C115.978 22.2564 117.993 23.055 119.589 24.6523C121.201 26.2497 122.007 28.2045 122.007 30.5168C122.007 32.8139 121.193 34.7687 119.567 36.3812ZM110.079 34.0765C110.991 35.0501 112.147 35.5369 113.545 35.5369C114.944 35.5369 116.092 35.0577 116.989 34.0993C117.886 33.1257 118.335 31.9315 118.335 30.5168C118.335 29.1172 117.879 27.9306 116.966 26.957C116.054 25.9834 114.899 25.4966 113.5 25.4966C112.101 25.4966 110.953 25.9834 110.056 26.957C109.159 27.9154 108.71 29.102 108.71 30.5168C108.71 31.9163 109.166 33.1029 110.079 34.0765Z" fill="#3CA1FF"/>
<path d="M125.237 38.5034V22.5302H131.463C133.957 22.5302 135.994 23.2908 137.575 24.8121C139.157 26.3181 139.947 28.2197 139.947 30.5168C139.947 32.7987 139.149 34.7002 137.553 36.2215C135.971 37.7427 133.941 38.5034 131.463 38.5034H125.237ZM128.749 35.3315H131.463C132.908 35.3315 134.071 34.8904 134.953 34.0081C135.835 33.1105 136.275 31.9468 136.275 30.5168C136.275 29.102 135.827 27.9459 134.93 27.0483C134.048 26.1508 132.892 25.702 131.463 25.702H128.749V35.3315Z" fill="#3CA1FF"/>
<path d="M143.351 38.5034V22.5302H146.863V38.5034H143.351Z" fill="#3CA1FF"/>
<path d="M154.685 38.5034V25.7705H149.827V22.5302H163.055V25.7705H158.197V38.5034H154.685Z" fill="#3CA1FF"/>
<path d="M165.87 38.5034V22.5302H177.913V25.6564H169.36V28.8966H176.886V32.0228H169.36V35.3772H178.027V38.5034H165.87Z" fill="#3CA1FF"/>
<path d="M179.895 38.5034L186.737 22.4161H189.976L196.818 38.5034H193.146L191.687 34.9208H184.936L183.476 38.5034H179.895ZM186.19 31.8175H190.432L188.311 26.6376L186.19 31.8175Z" fill="#3CA1FF"/>
<path d="M205.853 38.7772C203.511 38.7772 201.557 37.9861 199.991 36.404C198.44 34.8067 197.665 32.8443 197.665 30.5168C197.665 28.2045 198.448 26.2497 200.014 24.6523C201.58 23.055 203.572 22.2564 205.989 22.2564C207.373 22.2564 208.536 22.4846 209.479 22.9409C210.422 23.3821 211.319 24.021 212.17 24.8577L210.072 27.2765C209.388 26.6528 208.742 26.204 208.133 25.9302C207.54 25.6412 206.818 25.4966 205.967 25.4966C204.629 25.4966 203.519 25.9834 202.637 26.957C201.77 27.9154 201.337 29.102 201.337 30.5168C201.337 31.9163 201.77 33.1029 202.637 34.0765C203.519 35.0501 204.629 35.5369 205.967 35.5369C206.818 35.5369 207.556 35.3848 208.179 35.0805C208.802 34.7763 209.464 34.3047 210.163 33.6658L212.398 36.0617C211.532 36.9897 210.589 37.6743 209.57 38.1154C208.567 38.5566 207.328 38.7772 205.853 38.7772Z" fill="#3CA1FF"/>
<path d="M215.324 38.5034V22.5302H218.836V28.851H225.314V22.5302H228.826V38.5034H225.314V32.0913H218.836V38.5034H215.324Z" fill="#3CA1FF"/>
<rect x="1.5" y="1.5" width="255.826" height="61" rx="8.5" stroke="#3CA1FF" stroke-width="3"/>
<defs>
<linearGradient id="paint0_linear_120_74" x1="37.0033" y1="2.79195" x2="53.9197" y2="84.994" gradientUnits="userSpaceOnUse">
<stop stop-color="#3CA1FF"/>
<stop offset="1" stop-color="#75BDFF"/>
</linearGradient>
<linearGradient id="paint1_linear_120_74" x1="37.0033" y1="2.79195" x2="53.9197" y2="84.994" gradientUnits="userSpaceOnUse">
<stop stop-color="#3CA1FF"/>
<stop offset="1" stop-color="#75BDFF"/>
</linearGradient>
<linearGradient id="paint2_linear_120_74" x1="37.0033" y1="2.79195" x2="53.9197" y2="84.994" gradientUnits="userSpaceOnUse">
<stop stop-color="#3CA1FF"/>
<stop offset="1" stop-color="#75BDFF"/>
</linearGradient>
<linearGradient id="paint3_linear_120_74" x1="37.0033" y1="2.79195" x2="53.9197" y2="84.994" gradientUnits="userSpaceOnUse">
<stop stop-color="#3CA1FF"/>
<stop offset="1" stop-color="#75BDFF"/>
</linearGradient>
<linearGradient id="paint4_linear_120_74" x1="37.0033" y1="2.79195" x2="53.9197" y2="84.994" gradientUnits="userSpaceOnUse">
<stop stop-color="#3CA1FF"/>
<stop offset="1" stop-color="#75BDFF"/>
</linearGradient>
<linearGradient id="paint5_linear_120_74" x1="37.0033" y1="2.79195" x2="53.9197" y2="84.994" gradientUnits="userSpaceOnUse">
<stop stop-color="#3CA1FF"/>
<stop offset="1" stop-color="#75BDFF"/>
</linearGradient>
<linearGradient id="paint6_linear_120_74" x1="37.0033" y1="2.79195" x2="53.9197" y2="84.994" gradientUnits="userSpaceOnUse">
<stop stop-color="#3CA1FF"/>
<stop offset="1" stop-color="#75BDFF"/>
</linearGradient>
<linearGradient id="paint7_linear_120_74" x1="37.0033" y1="2.79195" x2="53.9197" y2="84.994" gradientUnits="userSpaceOnUse">
<stop stop-color="#3CA1FF"/>
<stop offset="1" stop-color="#75BDFF"/>
</linearGradient>
<linearGradient id="paint8_linear_120_74" x1="37.0033" y1="2.79195" x2="53.9197" y2="84.994" gradientUnits="userSpaceOnUse">
<stop stop-color="#3CA1FF"/>
<stop offset="1" stop-color="#75BDFF"/>
</linearGradient>
<linearGradient id="paint9_linear_120_74" x1="37.0033" y1="2.79195" x2="53.9197" y2="84.994" gradientUnits="userSpaceOnUse">
<stop stop-color="#3CA1FF"/>
<stop offset="1" stop-color="#75BDFF"/>
</linearGradient>
<linearGradient id="paint10_linear_120_74" x1="37.0033" y1="2.79195" x2="53.9197" y2="84.994" gradientUnits="userSpaceOnUse">
<stop stop-color="#3CA1FF"/>
<stop offset="1" stop-color="#75BDFF"/>
</linearGradient>
</defs>
</svg>
