<svg width="72" height="72" viewBox="0 0 72 72" fill="none" xmlns="http://www.w3.org/2000/svg">
<path d="M26.1556 32.1143L14 33.5714L17.4036 44.7429L26.1556 32.1143Z" fill="url(#paint0_linear_120_82)"/>
<path d="M22.752 20.9429L14.9724 31.1429L26.6418 29.6857L22.752 20.9429Z" fill="url(#paint1_linear_120_82)"/>
<path d="M35.3938 19L24.6969 20.4571L29.0729 28.7143L35.3938 19Z" fill="url(#paint2_linear_120_82)"/>
<path d="M38.3112 19.4857L30.5316 30.1714L43.6596 32.1143L38.3112 19.4857Z" fill="url(#paint3_linear_120_82)"/>
<path d="M49.9805 21.9143L40.7423 19.4857L46.0908 31.1429L49.9805 21.9143Z" fill="url(#paint4_linear_120_82)"/>
<path d="M47.5494 32.6L51.9254 23.3714L58.2463 32.6H47.5494Z" fill="url(#paint5_linear_120_82)"/>
<path d="M58.2463 35.0286H47.5494L51.9254 45.2286L58.2463 35.0286Z" fill="url(#paint6_linear_120_82)"/>
<path d="M43.1734 34.5429L30.5316 32.6L33.9352 44.2571L43.1734 34.5429Z" fill="url(#paint7_linear_120_82)"/>
<path d="M46.0908 36.4857L36.3663 46.2H50.4668L46.0908 36.4857Z" fill="url(#paint8_linear_120_82)"/>
<path d="M23.2382 45.7143L25.1831 37.4571L19.3485 45.7143H23.2382Z" fill="url(#paint9_linear_120_82)"/>
<path d="M32.4765 46.6857L28.5867 34.5429L25.1831 46.6857L32.4765 53V46.6857Z" fill="url(#paint10_linear_120_82)"/>
<circle cx="36" cy="36" r="35" stroke="#3CA1FF" stroke-width="2"/>
<defs>
<linearGradient id="paint0_linear_120_82" x1="15.5585" y1="6.79195" x2="58.2693" y2="52.9787" gradientUnits="userSpaceOnUse">
<stop stop-color="#3CA1FF"/>
<stop offset="1" stop-color="#75BDFF"/>
</linearGradient>
<linearGradient id="paint1_linear_120_82" x1="15.5585" y1="6.79195" x2="58.2693" y2="52.9787" gradientUnits="userSpaceOnUse">
<stop stop-color="#3CA1FF"/>
<stop offset="1" stop-color="#75BDFF"/>
</linearGradient>
<linearGradient id="paint2_linear_120_82" x1="15.5585" y1="6.79195" x2="58.2693" y2="52.9787" gradientUnits="userSpaceOnUse">
<stop stop-color="#3CA1FF"/>
<stop offset="1" stop-color="#75BDFF"/>
</linearGradient>
<linearGradient id="paint3_linear_120_82" x1="15.5585" y1="6.79195" x2="58.2693" y2="52.9787" gradientUnits="userSpaceOnUse">
<stop stop-color="#3CA1FF"/>
<stop offset="1" stop-color="#75BDFF"/>
</linearGradient>
<linearGradient id="paint4_linear_120_82" x1="15.5585" y1="6.79195" x2="58.2693" y2="52.9787" gradientUnits="userSpaceOnUse">
<stop stop-color="#3CA1FF"/>
<stop offset="1" stop-color="#75BDFF"/>
</linearGradient>
<linearGradient id="paint5_linear_120_82" x1="15.5585" y1="6.79195" x2="58.2693" y2="52.9787" gradientUnits="userSpaceOnUse">
<stop stop-color="#3CA1FF"/>
<stop offset="1" stop-color="#75BDFF"/>
</linearGradient>
<linearGradient id="paint6_linear_120_82" x1="15.5585" y1="6.79195" x2="58.2693" y2="52.9787" gradientUnits="userSpaceOnUse">
<stop stop-color="#3CA1FF"/>
<stop offset="1" stop-color="#75BDFF"/>
</linearGradient>
<linearGradient id="paint7_linear_120_82" x1="15.5585" y1="6.79195" x2="58.2693" y2="52.9787" gradientUnits="userSpaceOnUse">
<stop stop-color="#3CA1FF"/>
<stop offset="1" stop-color="#75BDFF"/>
</linearGradient>
<linearGradient id="paint8_linear_120_82" x1="15.5585" y1="6.79195" x2="58.2693" y2="52.9787" gradientUnits="userSpaceOnUse">
<stop stop-color="#3CA1FF"/>
<stop offset="1" stop-color="#75BDFF"/>
</linearGradient>
<linearGradient id="paint9_linear_120_82" x1="15.5585" y1="6.79195" x2="58.2693" y2="52.9787" gradientUnits="userSpaceOnUse">
<stop stop-color="#3CA1FF"/>
<stop offset="1" stop-color="#75BDFF"/>
</linearGradient>
<linearGradient id="paint10_linear_120_82" x1="15.5585" y1="6.79195" x2="58.2693" y2="52.9787" gradientUnits="userSpaceOnUse">
<stop stop-color="#3CA1FF"/>
<stop offset="1" stop-color="#75BDFF"/>
</linearGradient>
</defs>
</svg>
